<svg version="1.1" xmlns="http://www.w3.org/2000/svg" xmlns:xlink="http://www.w3.org/1999/xlink" width="73.8" height="73.74179" viewBox="0,0,73.8,73.74179"><g transform="translate(-283.1,-145.12069)"><g data-paper-data="{&quot;isPaintingLayer&quot;:true}" fill-rule="nonzero" stroke-linecap="butt" stroke-linejoin="miter" stroke-miterlimit="10" stroke-dasharray="" stroke-dashoffset="0" style="mix-blend-mode: normal"><path d="M349,198.4793v0" fill="#ffffff" stroke="none" stroke-width="1"/><path d="M292,198.4793" fill="#ffffff" stroke="none" stroke-width="1"/><path d="M356.9,190.5793c0,18.3 -16.5,24.2 -36.9,24.2c-20.4,0 -36.9,-5.9 -36.9,-24.2c0,-8.6 2.4,-18.5 7.7,-26.5l-4.3,-14.5c-0.8,-2.7 2,-5.3 4.6,-4.2l14.3,6c4.2,-1.9 9,-3 14.6,-3c5.5,0 10.3,1.2 14.5,3.1l14.4,-6c2.6,-1.1 5.4,1.5 4.6,4.2l-4.4,14.7c5.3,7.9 7.8,17.7 7.8,26.2z" fill="#ff7319" stroke="none" stroke-width="1"/><path d="M348.9,202.1793c0,9.6 -12.9,12.7 -28.9,12.7c-16,0 -28.9,-3.1 -28.9,-12.7c0,-9.6 8.6,-22.1 28.9,-22.1c19.8,0 28.9,12.5 28.9,22.1z" fill="#ffffff" stroke="none" stroke-width="1"/><path d="M316.8,184.4793c0,-1.3 1.4,-1.7 3.2,-1.7c1.8,0 3.2,0.4 3.2,1.7c0,1.3 -1,2.9 -3.2,2.9c-2.2,0 -3.2,-1.6 -3.2,-2.9z" fill="#945600" stroke="#000000" stroke-width="1.5"/><path d="M297.29076,160.68806c0,-0.99686 0.80812,-1.80498 1.80498,-1.80498c0.99686,0 1.80498,0.80812 1.80498,1.80498c0,0.99686 -0.80812,1.80498 -1.80498,1.80498c-0.99686,0 -1.80498,-0.80812 -1.80498,-1.80498z" fill="#000000" stroke="#000000" stroke-width="0"/><path d="M336.76825,161.72409c0,-1.1399 0.92408,-2.06398 2.06398,-2.06398c1.1399,0 2.06398,0.92408 2.06398,2.06398c0,1.1399 -0.92408,2.06398 -2.06398,2.06398c-1.1399,0 -2.06398,-0.92408 -2.06398,-2.06398z" fill="#000000" stroke="none" stroke-width="1"/><path d="M297.5,156.8793c-2,1.8 -3.8,3.5 -5.3,6.1l-3.9,-13.5c-0.3,-1.6 1.2,-3 2.8,-2.5l12.9,5.4c-3,1.2 -4.6,2.8 -6.5,4.5z" fill="#77500c" stroke="none" stroke-width="1"/><path d="M336.4,152.3793l12.9,-5.4c1.6,-0.5 3.1,0.9 2.8,2.5l-3.8,13.6c-1.6,-2.6 -3.3,-4.3 -5.4,-6.1c-1.9,-1.8 -3.6,-3.4 -6.5,-4.6z" fill="#77500c" stroke="none" stroke-width="1"/><path d="M311.89134,203.92339c0,-7.14606 3.35786,-12.9391 7.5,-12.9391c4.14214,0 7.5,5.79303 7.5,12.9391c0,7.14606 -3.35786,12.9391 -7.5,12.9391c-4.14214,0 -7.5,-5.79303 -7.5,-12.9391z" fill="#000000" stroke="#000000" stroke-width="4"/></g></g></svg>