<svg version="1.1" xmlns="http://www.w3.org/2000/svg" xmlns:xlink="http://www.w3.org/1999/xlink" width="168.91337" height="89.4258" viewBox="0,0,168.91337,89.4258"><g transform="translate(-239.19999,-137)"><g data-paper-data="{&quot;isPaintingLayer&quot;:true}" stroke-linejoin="miter" stroke-miterlimit="10" stroke-dasharray="" stroke-dashoffset="0" style="mix-blend-mode: normal"><path d="M330.9,218.7c-2,0 -3.8,-0.2 -5.3,-0.4c-2.8,-0.5 -2.7,-4.4 0.2,-4.9c1.5,-0.3 3.3,-0.4 5.2,-0.4c5.5,0 10,1.3 10,2.9c0,1.6 -4.5,2.8 -10.1,2.8z" fill="#000000" fill-rule="nonzero" stroke="none" stroke-width="1" stroke-linecap="butt"/><path d="M317,219.2c-1.3,0 -2.4,-0.2 -3.4,-0.4c-1.8,-0.5 -1.7,-4.4 0.1,-4.9c1,-0.3 2.1,-0.4 3.3,-0.4c1.2,0 2.4,0.2 3.3,0.4c1.8,0.5 1.8,4.5 -0.2,5c-0.8,0.1 -1.9,0.3 -3.1,0.3z" fill="#000000" fill-rule="nonzero" stroke="none" stroke-width="1" stroke-linecap="butt"/><path d="M345.4,209.4c-2,0 -3.8,-0.2 -5.3,-0.4c-2.8,-0.5 -2.7,-4.4 0.2,-4.9c1.5,-0.3 3.3,-0.4 5.2,-0.4c5.5,0 10,1.3 10,2.9c0,1.6 -4.5,2.8 -10.1,2.8z" fill="#000000" fill-rule="nonzero" stroke="none" stroke-width="1" stroke-linecap="butt"/><path d="M331.5,209.9c-1.3,0 -2.4,-0.2 -3.4,-0.4c-1.8,-0.5 -1.7,-4.4 0.1,-4.9c1,-0.3 2.1,-0.4 3.3,-0.4c1.2,0 2.4,0.2 3.3,0.4c1.8,0.5 1.8,4.5 -0.2,5c-0.8,0.2 -1.9,0.3 -3.1,0.3z" fill="#000000" fill-rule="nonzero" stroke="none" stroke-width="1" stroke-linecap="butt"/><path d="M376.2,218.7c-2,0 -3.8,-0.2 -5.3,-0.4c-2.8,-0.5 -2.7,-4.4 0.2,-4.9c1.5,-0.3 3.3,-0.4 5.2,-0.4c5.5,0 10,1.3 10,2.9c0,1.6 -4.6,2.8 -10.1,2.8z" fill="#000000" fill-rule="nonzero" stroke="none" stroke-width="1" stroke-linecap="butt"/><path d="M362.3,219.2c-1.3,0 -2.4,-0.2 -3.4,-0.4c-1.8,-0.5 -1.7,-4.4 0.1,-4.9c1,-0.3 2.1,-0.4 3.3,-0.4c1.2,0 2.4,0.2 3.3,0.4c1.8,0.5 1.8,4.5 -0.2,5c-0.9,0.1 -1.9,0.3 -3.1,0.3z" fill="#000000" fill-rule="nonzero" stroke="none" stroke-width="1" stroke-linecap="butt"/><path d="M390.7,209.4c-2,0 -3.8,-0.2 -5.3,-0.4c-2.8,-0.5 -2.7,-4.4 0.2,-4.9c1.5,-0.3 3.3,-0.4 5.2,-0.4c5.5,0 10,1.3 10,2.9c0,1.6 -4.6,2.8 -10.1,2.8z" fill="#000000" fill-rule="nonzero" stroke="none" stroke-width="1" stroke-linecap="butt"/><path d="M376.8,209.9c-1.3,0 -2.4,-0.2 -3.4,-0.4c-1.8,-0.5 -1.7,-4.4 0.1,-4.9c1,-0.3 2.1,-0.4 3.3,-0.4c1.2,0 2.4,0.2 3.3,0.4c1.8,0.5 1.8,4.5 -0.2,5c-0.9,0.2 -1.9,0.3 -3.1,0.3z" fill="#000000" fill-rule="nonzero" stroke="none" stroke-width="1" stroke-linecap="butt"/><g><path d="M313,198.7c0,18.3 -16.5,24.2 -36.9,24.2c-20.4,0 -36.9,-5.9 -36.9,-24.2c0,-8.6 2.4,-18.5 7.7,-26.5l-4.3,-14.5c-0.8,-2.7 2,-5.3 4.6,-4.2l14.3,6c4.2,-1.9 9,-3 14.6,-3c5.5,0 10.3,1.2 14.5,3.1l14.4,-6c2.6,-1.1 5.4,1.5 4.6,4.2l-4.4,14.7c5.2,7.9 7.7,17.7 7.8,26.2z" fill="#ff7319" fill-rule="nonzero" stroke="none" stroke-width="1" stroke-linecap="butt"/><path d="M304.9,210.3c0,9.6 -12.9,12.7 -28.9,12.7c-16,0 -28.9,-3.1 -28.9,-12.7c0,-9.6 8.6,-22.1 28.9,-22.1c19.9,0 28.9,12.5 28.9,22.1z" fill="#ffffff" fill-rule="nonzero" stroke="none" stroke-width="1" stroke-linecap="butt"/><path d="M272.8,192.6c0,-1.3 1.4,-1.7 3.2,-1.7c1.8,0 3.2,0.4 3.2,1.7c0,1.3 -1,2.9 -3.2,2.9c-2.2,0 -3.2,-1.6 -3.2,-2.9z" fill="#945600" fill-rule="nonzero" stroke="#000000" stroke-width="1.5" stroke-linecap="butt"/><g fill="none" fill-rule="nonzero" stroke="#000000" stroke-width="2.5" stroke-linecap="round"><path d="M270.5,202.2c3,0 5.5,-2.5 5.5,-5.5c0,-0.2 0,-0.2 0,-0.2c0,-0.2 0,-0.3 0,-0.3c0,0 0,0.1 0,0.3c0,0 0,0 0,0.2c0,3.1 2.5,5.5 5.5,5.5"/></g><path d="M271,181.6c0,-1.71208 1.38792,-3.1 3.1,-3.1c1.71208,0 3.1,1.38792 3.1,3.1c0,1.71208 -1.38792,3.1 -3.1,3.1c-1.71208,0 -3.1,-1.38792 -3.1,-3.1z" fill="#000000" fill-rule="nonzero" stroke="none" stroke-width="1" stroke-linecap="butt"/><path d="M283.8,181.6c0,-1.71208 1.38792,-3.1 3.1,-3.1c1.71208,0 3.1,1.38792 3.1,3.1c0,1.71208 -1.38792,3.1 -3.1,3.1c-1.71208,0 -3.1,-1.38792 -3.1,-3.1z" fill="#000000" fill-rule="nonzero" stroke="none" stroke-width="1" stroke-linecap="butt"/><path d="M253.6,165c-2.1,1.8 -3.8,3.5 -5.4,6.1l-3.9,-13.5c-0.3,-1.6 1.2,-3 2.8,-2.5l12.9,5.4c-2.9,1.2 -4.6,2.8 -6.4,4.5z" fill="#77500c" fill-rule="nonzero" stroke="none" stroke-width="1" stroke-linecap="butt"/><path d="M292.4,160.5l12.9,-5.4c1.6,-0.5 3.1,0.9 2.8,2.5l-3.8,13.5c-1.5,-2.6 -3.3,-4.3 -5.3,-6.1c-2,-1.7 -3.7,-3.3 -6.6,-4.5z" fill="#77500c" fill-rule="nonzero" stroke="none" stroke-width="1" stroke-linecap="butt"/><path d="M277.3,181.2h-7.4c-0.8,0 -1.4,-0.6 -1.4,-1.4v0c0,-0.8 0.6,-1.4 1.4,-1.4h7.4c0.8,0 1.4,0.6 1.4,1.4v0c0,0.7 -0.6,1.4 -1.4,1.4z" fill="#000000" fill-rule="nonzero" stroke="none" stroke-width="1" stroke-linecap="butt"/><g stroke="none" stroke-width="1" stroke-linecap="butt"><path d="M288.3,162c2.6,-0.1 14.6,-0.1 18.3,0.1c2.4,0.1 6.7,0.2 6.6,1.9c-0.1,2.2 -17,1.9 -17,1.9c0,0 -8,-3.2 -7.9,-3.9z" fill="#305959" fill-rule="evenodd"/><path d="M265.5,165.3l-10.6,-0.2c-2.2,-12.1 3.8,-25.2 20.1,-26.7z" fill="#68a19a" fill-rule="evenodd"/><path d="M296.3,165.9l-30.8,-0.6c0,0 -3.1,-17.6 9.5,-26.9c17.2,3.2 22.9,14.3 21.3,27.5z" fill="#508276" fill-rule="evenodd"/><path d="M277.09999,138.8c0,0.8 -0.9,1 -2,1c-1.1,0 -2,-0.2 -2,-1c0,-0.8 0.6,-1.8 2,-1.8c1.4,0 2,1 2,1.8z" fill="#281446" fill-rule="nonzero"/></g><g fill-rule="nonzero"><path d="M307.2,188.8l12.4,-12.4" fill="none" stroke="#7b7b7b" stroke-width="2.5" stroke-linecap="round"/><path d="M317.2,170.1c0,-4.5 3.6,-8.1 8.1,-8.1c4.5,0 8.1,3.6 8.1,8.1c0,4.5 -3.6,8.1 -8.1,8.1c-4.5,0 -8.1,-3.6 -8.1,-8.1z" fill="#ffffff" stroke="none" stroke-width="1" stroke-linecap="butt" opacity="0.5"/><path d="M317.2,170.1c0,-4.5 3.6,-8.1 8.1,-8.1c4.5,0 8.1,3.6 8.1,8.1c0,4.5 -3.6,8.1 -8.1,8.1c-4.5,0 -8.1,-3.6 -8.1,-8.1z" fill="none" stroke="#7b7b7b" stroke-width="2" stroke-linecap="butt"/></g></g><path d="M342.21336,209.92768v0" data-paper-data="{&quot;index&quot;:null}" fill="#ffffff" fill-rule="nonzero" stroke="none" stroke-width="1" stroke-linecap="butt"/><path d="M399.21336,209.92768" data-paper-data="{&quot;index&quot;:null}" fill="#ffffff" fill-rule="nonzero" stroke="none" stroke-width="1" stroke-linecap="butt"/><path d="M342.11336,175.82768l-4.4,-14.7c-0.8,-2.7 2,-5.3 4.6,-4.2l14.4,6c4.2,-1.9 9,-3.1 14.5,-3.1c5.6,0 10.4,1.1 14.6,3l14.3,-6c2.6,-1.1 5.4,1.5 4.6,4.2l-4.3,14.5c5.3,8 7.7,17.9 7.7,26.5c0,18.3 -16.5,24.2 -36.9,24.2c-20.4,0 -36.9,-5.9 -36.9,-24.2c0,-8.5 2.5,-18.3 7.8,-26.2z" data-paper-data="{&quot;index&quot;:null}" fill="#ff7319" fill-rule="nonzero" stroke="none" stroke-width="1" stroke-linecap="butt"/><path d="M371.21336,191.52768c20.3,0 28.9,12.5 28.9,22.1c0,9.6 -12.9,12.7 -28.9,12.7c-16,0 -28.9,-3.1 -28.9,-12.7c0,-9.6 9.1,-22.1 28.9,-22.1z" data-paper-data="{&quot;index&quot;:null}" fill="#ffffff" fill-rule="nonzero" stroke="none" stroke-width="1" stroke-linecap="butt"/><path d="M371.21336,198.82768c-2.2,0 -3.2,-1.6 -3.2,-2.9c0,-1.3 1.4,-1.7 3.2,-1.7c1.8,0 3.2,0.4 3.2,1.7c0,1.3 -1,2.9 -3.2,2.9z" data-paper-data="{&quot;index&quot;:null}" fill="#945600" fill-rule="nonzero" stroke="#000000" stroke-width="1.5" stroke-linecap="butt"/><path d="M376.83635,187.92768c-0.99686,0 -1.80498,-0.80812 -1.80498,-1.80498c0,-0.99686 0.80811,-1.80497 1.80498,-1.80497c0.99686,0 1.80497,0.80811 1.80497,1.80497c0,0.99686 -0.80811,1.80498 -1.80497,1.80498z" data-paper-data="{&quot;index&quot;:null}" fill="#000000" fill-rule="nonzero" stroke="#000000" stroke-width="0" stroke-linecap="butt"/><path d="M364.81336,187.92768c-1.1399,0 -2.06398,-0.92408 -2.06398,-2.06399c0,-1.1399 0.92408,-2.06398 2.06398,-2.06398c1.1399,0 2.06398,0.92407 2.06398,2.06398c0,1.1399 -0.92407,2.06399 -2.06398,2.06399z" data-paper-data="{&quot;index&quot;:null}" fill="#000000" fill-rule="nonzero" stroke="none" stroke-width="1" stroke-linecap="butt"/><path d="M387.21336,163.82768l12.9,-5.4c1.6,-0.5 3.1,0.9 2.8,2.5l-3.9,13.5c-1.5,-2.6 -3.3,-4.3 -5.3,-6.1c-1.9,-1.7 -3.5,-3.3 -6.5,-4.5z" data-paper-data="{&quot;index&quot;:null}" fill="#77500c" fill-rule="nonzero" stroke="none" stroke-width="1" stroke-linecap="butt"/><path d="M348.31336,168.42768c-2.1,1.8 -3.8,3.5 -5.4,6.1l-3.8,-13.6c-0.3,-1.6 1.2,-3 2.8,-2.5l12.9,5.4c-2.9,1.2 -4.6,2.8 -6.5,4.6z" data-paper-data="{&quot;index&quot;:null}" fill="#77500c" fill-rule="nonzero" stroke="none" stroke-width="1" stroke-linecap="butt"/><path d="M371.82203,224.4258c-4.14213,0 -7.5,-4.92333 -7.5,-10.99656c0,-6.07324 3.35787,-10.99657 7.5,-10.99657c4.14213,0 7.5,4.92333 7.5,10.99657c0,6.07324 -3.35787,10.99656 -7.5,10.99656z" data-paper-data="{&quot;index&quot;:null}" fill="#000000" fill-rule="nonzero" stroke="#000000" stroke-width="4" stroke-linecap="butt"/></g></g></svg>