<svg version="1.1" xmlns="http://www.w3.org/2000/svg" xmlns:xlink="http://www.w3.org/1999/xlink" width="154.07641" height="146.96868" viewBox="0,0,154.07641,146.96868"><g transform="translate(-242.79765,-106.51566)"><g data-paper-data="{&quot;isPaintingLayer&quot;:true}" fill-rule="nonzero" stroke-linejoin="miter" stroke-miterlimit="10" stroke-dasharray="" stroke-dashoffset="0" style="mix-blend-mode: normal"><path d="M332.50364,216.06888l23.4314,-64.24739l5.38032,1.96224l-23.4314,64.24739z" fill="#a5a5a5" stroke="#828282" stroke-width="2.5" stroke-linecap="butt"/><path d="M341.81239,220.99002c0,24.47103 -22.06404,32.36059 -49.34322,32.36059c-27.27918,0 -49.34322,-7.88957 -49.34322,-32.36059c0,-11.50005 3.20932,-24.73847 10.29655,-35.43619l-5.75002,-19.38961c-1.06977,-3.61048 2.67443,-7.08724 6.15119,-5.6163l19.12217,8.02329c5.6163,-2.54071 12.03493,-4.01164 19.52333,-4.01164c7.35468,0 13.77331,1.60466 19.38961,4.14537l19.25589,-8.02329c3.47676,-1.47094 7.22096,2.00582 6.15119,5.6163l-5.88374,19.65705c6.95352,10.564 10.29655,23.6687 10.43027,35.03502z" fill="#ff7319" stroke="none" stroke-width="1" stroke-linecap="butt"/><path d="M330.98095,236.50171c0,12.83726 -17.25007,16.98263 -38.6455,16.98263c-21.39543,0 -38.6455,-4.14537 -38.6455,-16.98263c0,-12.83726 11.50005,-29.55244 38.6455,-29.55244c26.61057,0 38.6455,16.71518 38.6455,29.55244z" fill="#ffffff" stroke="none" stroke-width="1" stroke-linecap="butt"/><path d="M288.05636,212.83301c0,-1.73838 1.8721,-2.27326 4.27909,-2.27326c2.40699,0 4.27909,0.53489 4.27909,2.27326c0,1.73838 -1.33721,3.87792 -4.27909,3.87792c-2.94187,0 -4.27909,-2.13954 -4.27909,-3.87792z" fill="#945600" stroke="#000000" stroke-width="1.5" stroke-linecap="butt"/><path d="M284.98077,225.67027c4.01164,0 7.35468,-3.34304 7.35468,-7.35468c0,-0.26744 0,-0.26744 0,-0.26744c0,-0.26744 0,-0.40116 0,-0.40116c0,0 0,0.13372 0,0.40116c0,0 0,0 0,0.26744c0,4.14537 3.34304,7.35468 7.35468,7.35468" fill="none" stroke="#000000" stroke-width="2.5" stroke-linecap="round"/><path d="M279.80862,198.12365c0,-2.28942 1.85595,-4.14537 4.14537,-4.14537c2.28942,0 4.14537,1.85595 4.14537,4.14537c0,2.28942 -1.85595,4.14537 -4.14537,4.14537c-2.28942,0 -4.14537,-1.85595 -4.14537,-4.14537z" fill="#000000" stroke="none" stroke-width="1" stroke-linecap="butt"/><path d="M296.92497,198.12365c0,-2.28942 1.85595,-4.14537 4.14537,-4.14537c2.28942,0 4.14537,1.85595 4.14537,4.14537c0,2.28942 -1.85595,4.14537 -4.14537,4.14537c-2.28942,0 -4.14537,-1.85595 -4.14537,-4.14537z" fill="#000000" stroke="none" stroke-width="1" stroke-linecap="butt"/><path d="M262.38184,175.92589c-2.80815,2.40699 -5.08142,4.68025 -7.22096,8.15701l-5.21514,-18.0524c-0.40116,-2.13954 1.60466,-4.01164 3.7442,-3.34304l17.25007,7.22096c-3.87792,1.60466 -6.15119,3.7442 -8.55817,6.01747z" fill="#77500c" stroke="none" stroke-width="1" stroke-linecap="butt"/><path d="M314.26577,169.90842l17.25007,-7.22096c2.13954,-0.66861 4.14537,1.20349 3.7442,3.34304l-5.08142,18.0524c-2.00582,-3.47676 -4.41281,-5.75002 -7.08724,-8.15701c-2.67443,-2.27326 -4.94769,-4.41281 -8.82562,-6.01747z" fill="#77500c" stroke="none" stroke-width="1" stroke-linecap="butt"/><path d="M288.05219,196.50689c0.26744,0 0.26744,0 0.26744,0c0.26744,0 0.40116,0 0.40116,0c0,0 -0.13372,0 -0.40116,0c0,0 0,0 -0.26744,0c-4.01164,0 -7.35468,-3.34304 -7.35468,-7.35468" fill="none" stroke="#000000" stroke-width="2.5" stroke-linecap="round"/><path d="M304.2178,188.92242c0,4.01164 -3.34304,7.35468 -7.35468,7.35468c-0.26744,0 -0.26744,0 -0.26744,0c-0.26744,0 -0.40116,0 -0.40116,0c0,0 0.13372,0 0.40116,0c0,0 0,0 0.26744,0" data-paper-data="{&quot;index&quot;:null}" fill="none" stroke="#000000" stroke-width="2.5" stroke-linecap="round"/><g stroke-linecap="butt"><path d="M344.85862,156.19361l-6.74589,-20.40006l7.8087,-18.91914l19.48504,-8.99491l22.35224,9.22568l7.77267,20.85191l-7.27386,17.62331l-18.19581,11.01555z" fill="#f40000" stroke="#820000" stroke-width="2.5"/><text transform="translate(346.18453,135.41759) rotate(22.42795) scale(0.41244,0.41569)" font-size="40" xml:space="preserve" fill="#f5f5f5" fill-rule="nonzero" stroke="none" stroke-width="1" stroke-linecap="butt" stroke-linejoin="miter" stroke-miterlimit="10" stroke-dasharray="" stroke-dashoffset="0" font-family="Sans Serif" font-weight="normal" text-anchor="start" style="mix-blend-mode: normal"><tspan x="0" dy="0">STOP</tspan></text></g><path d="M332.68974,230.80222v0" fill="#ffffff" stroke="none" stroke-width="1" stroke-linecap="butt"/><path d="M254.93786,230.80222" fill="#ffffff" stroke="none" stroke-width="1" stroke-linecap="butt"/><path d="M343.46588,220.02608c0,24.96245 -22.50713,33.01045 -50.33412,33.01045c-27.82699,0 -50.33412,-8.048 -50.33412,-33.01045c0,-11.73099 3.27376,-25.23526 10.50333,-36.14781l-5.86549,-19.77899c-1.09125,-3.68298 2.72814,-7.22956 6.27471,-5.72909l19.50618,8.18441c5.72909,-2.59173 12.27661,-4.0922 19.9154,-4.0922c7.50238,0 14.0499,1.63688 19.77899,4.22861l19.64258,-8.18441c3.54658,-1.50048 7.36597,2.0461 6.27471,5.72909l-6.0019,20.0518c7.22956,10.77614 10.63973,24.14401 10.63973,35.73859z" fill="#ff7319" stroke="none" stroke-width="1" stroke-linecap="butt"/><path d="M332.55334,235.84927c0,13.09505 -17.59648,17.32367 -39.42157,17.32367c-21.82509,0 -39.42157,-4.22861 -39.42157,-17.32367c0,-13.09505 11.73099,-30.14591 39.42157,-30.14591c27.00855,0 39.42157,17.05085 39.42157,30.14591z" fill="#ffffff" stroke="none" stroke-width="1" stroke-linecap="butt"/><path d="M288.76675,211.70527c0,-1.77329 1.9097,-2.31892 4.36502,-2.31892c2.45532,0 4.36502,0.54563 4.36502,2.31892c0,1.77329 -1.36407,3.9558 -4.36502,3.9558c-3.00095,0 -4.36502,-2.18251 -4.36502,-3.9558z" fill="#945600" stroke="#000000" stroke-width="1.5" stroke-linecap="butt"/><path d="M282.99952,198.33061c0,-1.35979 1.10232,-2.46211 2.46211,-2.46211c1.35979,0 2.46211,1.10232 2.46211,2.46211c0,1.35979 -1.10232,2.46212 -2.46211,2.46212c-1.35979,0 -2.46211,-1.10233 -2.46211,-2.46212z" fill="#000000" stroke="#000000" stroke-width="0" stroke-linecap="butt"/><path d="M299.04639,197.97731c0,-1.55491 1.2605,-2.81541 2.81541,-2.81541c1.55491,0 2.81541,1.2605 2.81541,2.81541c0,1.55491 -1.2605,2.81542 -2.81541,2.81542c-1.55491,0 -2.81541,-1.26051 -2.81541,-2.81542z" fill="#000000" stroke="none" stroke-width="1" stroke-linecap="butt"/><path d="M262.44023,174.05698c-2.72814,2.45532 -5.18346,4.77424 -7.22956,8.32082l-5.31987,-18.41492c-0.40922,-2.18251 1.63688,-4.0922 3.81939,-3.41017l17.59648,7.36597c-4.0922,1.63688 -6.27471,3.81939 -8.86644,6.13831z" fill="#77500c" stroke="none" stroke-width="1" stroke-linecap="butt"/><path d="M315.50249,167.91868l17.59648,-7.36597c2.18251,-0.68203 4.22861,1.22766 3.81939,3.41017l-5.18346,18.55133c-2.18251,-3.54658 -4.50143,-5.86549 -7.36597,-8.32082c-2.59173,-2.45532 -4.91065,-4.63783 -8.86644,-6.27471z" fill="#77500c" stroke="none" stroke-width="1" stroke-linecap="butt"/><path d="M282.07099,235.5786c0,-8.28431 4.58036,-15.00006 10.23051,-15.00006c5.65015,0 10.23051,6.71576 10.23051,15.00006c0,8.28431 -4.58036,15.00006 -10.23051,15.00006c-5.65015,0 -10.23051,-6.71575 -10.23051,-15.00006z" fill="#000000" stroke="#000000" stroke-width="4" stroke-linecap="butt"/></g></g></svg>